<svg viewBox="0 0 22.67 25" xmlns="http://www.w3.org/2000/svg"><path d="m0 6.89c.15-.32 1.32-.64 1.44-.83.19-.31-.85-1.91.27-1.74.97.57 1.95 1.16 3.02 1.52-.4-.55-.8-1.11-1.13-1.7-.21-.37-.68-.97-.34-1.33.79-.83 1.93-1.54 2.73-2.39.32-.2.45-.55.87-.34.72.36 2.28 1.92 2.86 2.56l1.61 2c.81-1.18 1.77-2.31 2.83-3.27.24-.22 1.56-1.34 1.76-1.36h.18l3.39 3c.03.11 0 .19-.03.29-.08.25-.45.85-.61 1.1-.3.51-.64.99-1.02 1.45.07.06 1.42-.61 1.61-.71.37-.19 1.14-.74 1.46-.83.17-.05.36-.03.46.13.23.32-.25 1.18-.21 1.58.04.13 1.12.54 1.31.69.58.48-.45.89-.79 1.06-1.69.82-3.56 1.27-5.39 1.64l-2.6.36h8.27c.13 0 .27.24.27.37.03 1.52-.04 2.57 0 4-.08.4-.46.32-.78.32v10.28c0 .07-.18.22-.24.27h-19.78c-.04-.05-.24-.22-.24-.27v-10.28c-.32 0-.49-.01-.78-.32-.04-1.37.05-2.74 0-4 0-.13.14-.37.27-.37h8.18l-2.74-.41c-1.61-.32-3.21-.73-4.71-1.39-.47-.21-1.03-.43-1.38-.79v-.29zm9.84 2.1h1.93c-2.47-1.62-4.26-3.92-5.14-6.75-.1-.31-.16-.62-.23-.94-.01-.06.04-.09-.07-.07l-2.31 1.96c.98 1.9 2.45 3.82 4.3 4.95.43.26.87.43 1.3.65.08.04.21.2.23.21zm8.8-5.81c-.77-.6-1.5-1.29-2.24-1.93l-.15-.02c-.24 1.37-.81 2.72-1.54 3.9-.46.73-1.09 1.55-1.7 2.15-.3.29-.67.54-.97.82-.04.04-.05.03-.03.1.26.07.81.58 1.04.57.13 0 .74-.33.9-.42 2.05-1.11 3.65-3.13 4.7-5.18zm-11.42-1.81c.51 2.22 1.87 4.51 3.64 5.95.1.08.4.36.51.32.08-.03.54-.41.53-.48 0-.06-.23-.46-.28-.55-.39-.75-.94-1.54-1.45-2.21-.85-1.11-1.86-2.16-2.95-3.03zm8.2 0c-1.39 1.1-2.56 2.47-3.59 3.91v.19c.15.13.58 1.1.68 1.13.07.02.68-.71.77-.83 1.01-1.26 1.78-2.8 2.13-4.39zm-7.51 7.47c-.43-.36-.92-.65-1.34-1.03-.22-.19-.61-.69-.81-.8-.16-.09-.43-.1-.62-.16-1.02-.34-1.98-.81-2.92-1.33-.06.4.36.78-.09 1.08-.13.09-.79.35-.82.38-.05.06.04.11.08.13.23.15.79.33 1.07.44 1.74.67 3.57 1.1 5.43 1.28zm13.42-1.85s-.68-.29-.82-.38c-.45-.3-.03-.68-.09-1.08-.93.52-1.9.99-2.92 1.33-.19.06-.46.07-.62.16-.31.17-.7.8-1.05 1l-1.15.83c1.86-.18 3.74-.61 5.48-1.28.28-.11.84-.29 1.07-.44.04-.03.13-.07.08-.13zm-8.44 2.78h-3.12v14.45h3.12zm-10.16.78c-.52 0-1.04 0-1.56 0v3.12h1.56c2.08.01 4.17 0 6.25 0v-3.12c-2.08 0-4.17-.01-6.25 0zm17.18 0c-2.08-.01-4.17 0-6.25 0v3.12c2.08 0 4.17.01 6.25 0h1.56v-3.12c-.52 0-1.04 0-1.56 0zm-16.01 3.9c-.65 0-1.3 0-1.95 0v1.42c.66-.15 1.3-.39 1.95-.59.91-.27 1.83-.52 2.73-.81-.91-.04-1.82-.03-2.73-.02zm11.87 0h-2.1l.03.64zm2.97 0c-.1 0-.2-.01-.29.02l-4.7 1.4-.08.06v1.88c1.7-.48 3.39-1 5.08-1.51.65-.2 1.3-.38 1.95-.59v-1.27c-.64.03-1.32-.04-1.95 0zm-14.84 1.66c-.65.2-1.3.39-1.95.59v1.9c.66-.15 1.3-.39 1.95-.59 1.69-.51 3.39-.99 5.08-1.51v-1.9c-1.69.49-3.39 1-5.08 1.51zm14.84 1.03c-1.69.5-3.39 1-5.08 1.51v1.9c1.7-.48 3.39-1 5.08-1.51.65-.2 1.3-.38 1.95-.59v-1.9c-.66.17-1.3.39-1.95.59zm-14.84 1.71c-.65.2-1.3.39-1.95.59v1.9c.66-.15 1.3-.39 1.95-.59 1.66-.5 3.33-.98 4.99-1.48l.08-.06v-1.88c-1.69.49-3.39 1-5.08 1.51zm14.84 1.02c-1.66.5-3.33.99-4.99 1.48l-.08.06v1.88c1.7-.48 3.39-1 5.08-1.51.65-.2 1.3-.38 1.95-.59v-1.9c-.66.17-1.3.39-1.95.59zm-14.84 1.71c-.65.2-1.3.39-1.95.59v1.9c.66-.15 1.3-.39 1.95-.59 1.69-.51 3.39-.99 5.08-1.51v-1.9c-1.69.49-3.39 1-5.08 1.51zm14.84 1.03c-1.69.51-3.4.98-5.08 1.54-.04.11.11.07.17.07 1.58.08 3.31 0 4.91 0h1.95v-2.2c-.66.17-1.3.39-1.95.59zm-9.76.19-4.69 1.42h4.69z" fill="#212121"/><path d="m9.76 9.77h3.12v14.45h-3.12z" fill="#a41717"/><path d="m2.73 10.55c2.08-.01 4.17 0 6.25 0v3.12c-2.08 0-4.17.01-6.25 0z" fill="#fb9d15"/><path d="m19.91 10.55v3.12c-2.08.01-4.17 0-6.25 0v-3.12c2.08 0 4.17-.01 6.25 0z" fill="#fb9d15"/><path d="m9.84 8.99s-.15-.16-.23-.21c-.43-.23-.87-.39-1.3-.65-1.85-1.13-3.32-3.05-4.3-4.95l2.31-1.96c.11-.01.06.02.07.07.08.32.14.63.23.94.88 2.83 2.67 5.13 5.14 6.75h-1.93z" fill="#d61919"/><path d="m18.64 3.18c-1.04 2.04-2.65 4.06-4.7 5.18-.16.08-.77.41-.9.42-.23 0-.78-.5-1.04-.57-.01-.07-.01-.06.03-.1.3-.28.67-.53.97-.82.61-.61 1.24-1.42 1.7-2.15.73-1.18 1.31-2.53 1.54-3.9l.15.02c.74.64 1.47 1.33 2.24 1.93z" fill="#ed4444"/><path d="m18.74 19.87v1.9c-1.69.51-3.38 1.03-5.08 1.51v-1.88l.08-.06c1.67-.49 3.33-.98 4.99-1.48z" fill="#0467b0"/><path d="m18.74 14.45v1.86c-1.69.51-3.38 1.03-5.08 1.51v-1.88l.08-.06 4.7-1.4c.1-.04.2-.02.29-.02z" fill="#0467b0"/><path d="m18.74 17.14v1.9c-1.69.51-3.38 1.03-5.08 1.51v-1.9c1.69-.52 3.38-1.01 5.08-1.51z" fill="#038b3b"/><path d="m3.9 18.85c1.69-.51 3.38-1.02 5.08-1.51v1.88l-.08.06c-1.66.5-3.33.98-4.99 1.48v-1.9z" fill="#0467b0"/><path d="m3.9 21.58c1.69-.51 3.38-1.02 5.08-1.51v1.9c-1.68.53-3.38 1.01-5.08 1.51z" fill="#038b3b"/><path d="m3.9 16.11c1.69-.51 3.38-1.02 5.08-1.51v1.9c-1.68.53-3.38 1.01-5.08 1.51z" fill="#038b3b"/><path d="m7.22 1.37c1.08.87 2.1 1.93 2.95 3.03.51.67 1.06 1.46 1.45 2.21.05.1.27.49.28.55 0 .07-.46.46-.53.48-.11.04-.41-.24-.51-.32-1.77-1.44-3.13-3.74-3.64-5.95z" fill="#a31717"/><path d="m7.91 8.84c-1.86-.18-3.69-.61-5.43-1.28-.28-.11-.84-.29-1.07-.44-.04-.03-.13-.07-.08-.13.03-.04.68-.29.82-.38.45-.3.03-.68.09-1.08.94.52 1.9.99 2.92 1.33.19.06.46.07.62.16.2.11.59.61.81.8.42.37.91.67 1.34 1.03z" fill="#ed4444"/><path d="m21.33 6.99c.05.06-.04.11-.08.13-.23.15-.79.33-1.07.44-1.74.67-3.62 1.1-5.48 1.28l1.15-.83c.36-.2.75-.82 1.05-1 .16-.09.43-.1.62-.16 1.02-.34 1.98-.81 2.92-1.33.06.4-.36.78.09 1.08.13.09.79.35.82.38z" fill="#d51919"/><path d="m15.42 1.37c-.35 1.59-1.12 3.12-2.13 4.39-.1.12-.7.85-.77.83-.1-.02-.53-1-.68-1.13v-.19c1.03-1.44 2.2-2.81 3.59-3.91z" fill="#d51919"/><path d="m2.73 10.55v3.12c-.52 0-1.04 0-1.56 0v-3.12z" fill="#fabb69"/><path d="m19.91 10.55h1.56v3.12c-.52 0-1.04 0-1.56 0z" fill="#bc7710"/><path d="m18.74 22.61v1.61c-1.6 0-3.32.08-4.91 0-.06 0-.21.04-.17-.07 1.68-.56 3.38-1.03 5.08-1.54z" fill="#038b3b"/><path d="m3.9 21.58v1.9c-.65.19-1.29.43-1.95.59v-1.9c.65-.2 1.3-.39 1.95-.59z" fill="#67b888"/><path d="m3.9 16.11v1.9c-.65.19-1.29.43-1.95.59v-1.9c.65-.2 1.3-.39 1.95-.59z" fill="#67b888"/><path d="m3.9 18.85v1.9c-.65.19-1.29.43-1.95.59v-1.9c.65-.2 1.3-.39 1.95-.59z" fill="#3685bf"/><path d="m18.74 17.14c.65-.19 1.29-.42 1.95-.59v1.9c-.65.2-1.3.39-1.95.59z" fill="#036a2d"/><path d="m18.74 19.87c.65-.19 1.29-.42 1.95-.59v1.9c-.65.2-1.3.39-1.95.59z" fill="#034d84"/><path d="m18.74 22.61c.65-.19 1.29-.42 1.95-.59v2.2c-.65 0-1.3 0-1.95 0z" fill="#036a2d"/><path d="m8.98 22.8v1.42h-4.68z" fill="#0467b0"/><path d="m18.74 14.45c.64-.04 1.31.03 1.95 0v1.27c-.65.2-1.3.39-1.95.59z" fill="#034d84"/><path d="m3.9 14.45v.83c-.65.19-1.29.43-1.95.59v-1.42z" fill="#3685bf"/><path d="m3.9 14.45c.91 0 1.83-.02 2.73.02-.9.29-1.82.53-2.73.81z" fill="#0467b0"/><path d="m15.77 14.45-2.08.64-.02-.64z" fill="#038b3b"/></svg>