<?xml version="1.0" encoding="UTF-8"?>
<svg id="Layer_1" data-name="Layer 1" xmlns="http://www.w3.org/2000/svg" viewBox="0 0 30 30">
  <defs>
    <style>
      .cls-1 {
        fill: #d51919;
      }

      .cls-2 {
        fill: #212221;
      }

      .cls-3 {
        fill: #222121;
      }

      .cls-4 {
        fill: #ec4444;
      }

      .cls-5 {
        fill: #035022;
      }

      .cls-6 {
        fill: #f79b15;
      }

      .cls-7 {
        fill: #038b3b;
      }

      .cls-8 {
        fill: #a31717;
      }

      .cls-9 {
        fill: #036a2d;
      }

      .cls-10 {
        fill: #d41919;
      }
    </style>
  </defs>
  <path class="cls-3" d="M1.58,16.74c0-.56.55-1.44.36-1.6-.26-.2-.37-1.08-.37-1.08l.14-.58s.02-.23.4-.67c.14-.16.57-.38.59-.42.08-.13.25-1.1.38-1.43.29-.71.8-1.4,1.35-1.94.45-.44.53-.48.92-1.01.27-.36.53-.72.81-1.07-1.04-.31-1.98-.87-2.63-1.77-.38-.53-.56-.75-.38-1.41C3.67,1.86,5.46.14,7.48,0c.97-.07,3.63,1.29,4.55,1.82.21.12,1.23.84,1.31.86.05,0,.62-.23.77-.26.5-.11.87-.1,1.36.01.14.03.67.26.72.25.09-.02.81-.55.98-.66,1.02-.62,2.14-1.19,3.26-1.6.79-.29,1.21-.5,2.07-.34,1.87.35,3.42,1.9,3.89,3.72.16.62-.03.87-.39,1.37-.63.89-1.6,1.45-2.63,1.77.28.35.54.71.81,1.07.39.53.47.57.92,1.01.8.78,1.43,1.81,1.65,2.92.12.59.08,1.37.21,1.9.03.13.26.39.33.55.63,1.35.77,2.78.3,4.22,0,.11.22.2.32.32.81.99.47,2.42-.69,2.94-.11.05-.53.14-.56.18-.02.02-.1.42-.14.53-.39,1-1,1.88-1.86,2.53-.26.19-.9.48-1.05.65-.14.16-.32.59-.48.81-.15.21-.8.88-.84.98-.06.14-.02.31-.06.47-.31,1.21-1.5,1.89-2.68,1.33-.16-.08-.46-.36-.56-.38-.14-.04-.34.05-.51.05-.14,0-.27-.08-.41-.06-.26.03-1.1.72-1.48.75l-1.19.31h-1.41c-.48-.16-.97-.26-1.45-.46-.23-.1-.95-.57-1.06-.59-.14-.02-.38.06-.57.05-1.17-.05-2.33-.43-3.27-1.13-.18-.13-.7-.68-.8-.72-.12-.05-.43.04-.61.03-.98-.03-1.78-.87-1.79-1.85,0-.16.08-.41.05-.52-.02-.06-.59-.64-.69-.78-.73-.95-1.12-2.14-1.18-3.34,0-.2.08-.44.05-.57-.02-.12-.5-.85-.61-1.1-.2-.49-.31-.63-.44-1.52M12.6,5.09c-.02-.46.24-1.06.24-1.5,0-.09,0-.11-.06-.17-.13-.16-.87-.59-1.09-.72-.85-.51-1.83-1-2.76-1.34-.97-.37-1.34-.56-2.37-.18s-2.08,1.4-2.33,2.51c1.74-.13,3.51-.14,5.22.19.79.15,1.62.41,2.33.77.13.07.75.51.82.44ZM25.31,3.69c-.25-1.09-1.22-2.05-2.24-2.47s-1.45-.24-2.46.14c-.92.35-1.95.86-2.79,1.37-.19.11-.96.58-1.06.7-.03.04-.05.06-.06.12-.05.35.28,1.14.24,1.55.07.07.69-.38.82-.44,1.69-.86,3.62-.98,5.48-1.09l2.08.12ZM16.11,5.85c.07-.1-.33-2.22-.4-2.31-.24-.33-1.57-.32-1.85-.03-.2.2-.33,1.96-.43,2.34.87.32,1.82.32,2.69,0ZM9.02,4.74c-.58-.01-1.15-.15-1.73-.18-.75-.04-1.85-.06-2.58,0-.07,0-.38.04-.38.09.42.59,1.08,1.07,1.77,1.28.2.06.66.17.84.16.14,0,.87-.6,1.09-.73.29-.18.65-.32.92-.49.06-.04.1,0,.08-.13ZM25.2,4.63c-1.51-.11-3.09-.1-4.6.12-.08.01-.18.02-.09.11.02.02.51.22.63.28.29.17.58.36.86.55.12.08.34.33.45.37.18.07.8-.08,1.02-.15.67-.2,1.37-.69,1.73-1.29ZM11.9,5.85c-.28-.23-.83-.6-1.2-.59-.23,0-.64.17-.86.25-1.74.64-3.23,2.04-4.09,3.68.07.06,1.39-.37,1.7-.27.38.12.3.78.44,1.09.86-1.74,2.09-3.53,4.01-4.16ZM23.79,9.19c-.8-1.53-2.16-2.86-3.75-3.54-.27-.12-.87-.36-1.14-.38-.43-.03-.9.35-1.26.56,1.92.69,3.15,2.42,4.01,4.19.13-.31.05-.97.44-1.09.31-.1,1.63.32,1.7.27ZM7.79,12.18c-.21.02-.39-.06-.48-.25-.09-.46-.24-.93-.34-1.39-.02-.09-.01-.58-.09-.59-.5.07-.99.18-1.5.26-.09.01-.19.09-.23.09-.2.03-.37-.06-.5-.05-.19,0-.58.78-.66.97-.07.17-.38.9-.24.99.07.04.27.04.39.08,2.44.92.98,4.5-1.44,3.46-.26,1.23-.08,2.3.5,3.4.27.51.46.46.44,1.14,0,.38-.05.64,0,1.05.14.94.65,1.97,1.37,2.6,1.9-1.58,4.27.78,2.68,2.68.63.71,1.63,1.21,2.55,1.36.16.03.48.07.63.07.31,0,.63-.11.92-.05.11.02.72.41.92.51,1.24.62,2.44.72,3.75.2.73-.29,1.21-.97,2.05-.67-.28-1.8,1.71-3.03,3.13-1.82.11.1.15.26.29.29.29-.06.79-1.33,1-1.52.15-.14.5-.24.69-.36.85-.54,1.57-1.26,1.94-2.22.32-.82,0-.51-.44-.97-1.25-1.28-.16-3.37,1.57-3.2.38-1.1.29-2.37-.26-3.39-.54.49-1.12.69-1.85.53-1.68-.38-1.86-2.81-.41-3.52.1-.05.66-.17.79-.18.27-.01.48.06.73.12.1-.12-.56-1.4-.73-1.53-.12-.09-.41.03-.62,0-.03,0-.14-.07-.23-.09-.5-.09-.99-.22-1.49-.27-.05.01-.13.49-.15.59-.08.36-.15,1.1-.28,1.39-.09.19-.28.27-.48.25-.14-.01-.27-.09-.34-.21-.63-1.81-1.55-3.8-3.24-4.85-.3-.19-1.04-.56-1.37-.55-.12,0-.58.26-.79.32-.76.21-1.75.21-2.51-.01-.19-.06-.63-.3-.74-.3-.36-.01-1.14.39-1.46.59-1.27.82-2.11,2.27-2.7,3.62-.17.39-.36,1.37-.79,1.4ZM24.89,12.67c-1.07.17-.93,1.94.27,1.86s1.09-2.08-.27-1.86ZM3.33,13.14c-1.13.18-.94,2.06.38,1.85,1.13-.18.94-2.06-.38-1.85ZM26.29,19.23c-1.13.18-.92,2.06.38,1.85,1.13-.18.94-2.06-.38-1.85ZM6.14,24.39c-1.13.18-.94,2.06.38,1.85,1.13-.18.94-2.06-.38-1.85ZM20.14,26.73c-.92.19-.92,1.73.11,1.86,1.48.18,1.39-2.17-.11-1.86Z"/>
  <path class="cls-7" d="M20.22,10.72c-.44-.36-1.18-.5-1.72-.35-.16.04-.56.3-.64.28-.14-.03-.48-.6-.63-.72-.29-.23-1.07.08-1.44.14-.48.07-.96.07-1.45.07-.06-.01-.15-.46-.2-.57-.96-2.14-4.22-1.04-3.45,1.4.04.13.22.32.14.45-.03.05-.58.38-.68.44-.26.15-1.21.49-1.32.62-.22.26-.11.71-.16,1.02-.21,1.49-.65,1.93-1.24,3.16-.04.08-.04.25-.05.27-.01.01-.19.02-.27.05-2.53,1.04-.86,4.63,1.56,3.41,0,.26-.03.71.18.91.15.14,1.09.47,1.4.65.64.37,1.35.94,1.76,1.55-1.76.35-2.01,2.85-.35,3.55,2.14.9,3.65-1.97,1.82-3.31.78-.15,1.57-.16,2.36-.04.35.05.92.28,1.23.21.21-.05.44-.47.6-.63.19-.2,1.07-1.06,1.28-1.04.14.01.5.24.78.27,1.22.13,2.21-.92,2.07-2.13-.04-.33-.22-.62-.39-.9-.11-.18-.26-.2-.25-.45.01-.16.27-.76.36-.94.14-.3.65-.99.64-1.24,0-.19-.58-1.04-.72-1.34-.55-1.24-.56-2.07-.58-3.38.22.2.2.89.56.88.32,0,.24-.61.32-.82.2.02.4-.06.48-.25.13-.29.2-1.03.28-1.39.47-.02.97.25,1.41.29l.29,1.05c-1.45.71-1.27,3.14.41,3.52-.03,6.69-5.27,12.4-11.89,13.13-.2-.1-.81-.49-.92-.51-.3-.07-.61.05-.92.05-.15,0-.47-.05-.63-.07-.93-.15-1.93-.65-2.55-1.36,1.59-1.9-.77-4.26-2.68-2.68-.72-.63-1.23-1.66-1.37-2.6-.06-.41-.02-.67,0-1.05.02-.68-.17-.63-.44-1.14-.58-1.1-.76-2.17-.5-3.4,2.42,1.04,3.88-2.55,1.44-3.46-.12-.04-.32-.04-.39-.08-.14-.09.17-.82.24-.99.09-.19.47-.96.66-.97.13,0,.31.08.5.05,0,.2-.06.48.21.53.41.07,1.16-.33,1.61-.29.1.46.25.93.34,1.39.09.19.28.27.48.25.01.23.15,1.12.53.73.09-.09.41-1.07.52-1.3.62-1.36,1.5-2.83,2.65-3.8.15-.13.88-.66,1.03-.67.1,0,1.01.39,1.31.44,1.15.2,2.18,0,3.24-.43,1.39.79,2.47,2.13,3.15,3.57Z"/>
  <path class="cls-9" d="M24.61,15.41c.73.16,1.31-.03,1.85-.53.55,1.02.64,2.29.26,3.39-1.74-.17-2.82,1.92-1.57,3.2.45.46.76.14.44.97-.37.96-1.09,1.68-1.94,2.22-.19.12-.55.22-.69.36-.21.2-.71,1.46-1,1.52-.14-.03-.18-.19-.29-.29-1.43-1.21-3.41.01-3.13,1.82-.84-.29-1.32.39-2.05.67-1.31.51-2.51.41-3.75-.2,6.62-.73,11.86-6.44,11.89-13.13Z"/>
  <path class="cls-1" d="M12.6,5.09c-.07.07-.69-.38-.82-.44-.72-.36-1.54-.62-2.33-.77-1.72-.33-3.49-.33-5.22-.19.24-1.11,1.27-2.11,2.33-2.51s1.4-.19,2.37.18,1.91.83,2.76,1.34c.23.14.96.56,1.09.72.05.07.06.08.06.17,0,.44-.26,1.03-.24,1.5Z"/>
  <path class="cls-1" d="M25.31,3.69l-2.08-.12c-1.86.11-3.78.23-5.48,1.09-.13.07-.75.51-.82.44.05-.41-.29-1.2-.24-1.55,0-.06.03-.08.06-.12.1-.12.87-.58,1.06-.7.84-.51,1.87-1.02,2.79-1.37,1.01-.38,1.4-.57,2.46-.14s2,1.38,2.24,2.47Z"/>
  <path class="cls-9" d="M21.74,12.18c-.08.21,0,.81-.32.82-.35,0-.34-.68-.56-.88,0-.44-.3-1.13-.64-1.41-.68-1.43-1.76-2.78-3.15-3.57-1.06.43-2.09.63-3.24.43-.3-.05-1.21-.45-1.31-.44-.15,0-.88.54-1.03.67-1.15.97-2.03,2.44-2.65,3.8-.11.23-.43,1.21-.52,1.3-.38.39-.51-.5-.53-.73.43-.04.62-1.02.79-1.4.59-1.36,1.43-2.81,2.7-3.62.31-.2,1.1-.6,1.46-.59.11,0,.55.25.74.3.76.22,1.74.22,2.51.01.21-.06.67-.31.79-.32.34-.01,1.08.37,1.37.55,1.68,1.05,2.61,3.04,3.24,4.85.07.12.2.2.34.21Z"/>
  <path class="cls-4" d="M11.9,5.85c-1.92.63-3.15,2.42-4.01,4.16-.13-.31-.05-.97-.44-1.09-.31-.1-1.63.32-1.7.27.85-1.64,2.34-3.04,4.09-3.68.23-.08.64-.25.86-.25.37,0,.92.36,1.2.59Z"/>
  <path class="cls-4" d="M23.79,9.19c-.07.06-1.39-.37-1.7-.27-.38.12-.3.78-.44,1.09-.86-1.77-2.09-3.5-4.01-4.19.36-.21.83-.59,1.26-.56.27.02.87.27,1.14.38,1.59.68,2.96,2.01,3.75,3.54Z"/>
  <path class="cls-4" d="M16.11,5.85c-.87.32-1.81.32-2.69,0,.1-.38.23-2.14.43-2.34.29-.29,1.62-.3,1.85.03.07.1.47,2.22.4,2.31Z"/>
  <path class="cls-8" d="M9.02,4.74c.03.14-.02.09-.08.13-.27.17-.62.3-.92.49-.21.13-.95.73-1.09.73-.18,0-.64-.11-.84-.16-.69-.2-1.36-.69-1.77-1.28,0-.05.31-.09.38-.09.74-.06,1.83-.04,2.58,0,.57.03,1.15.17,1.73.18Z"/>
  <path class="cls-8" d="M25.2,4.63c-.36.59-1.06,1.08-1.73,1.29-.22.07-.84.22-1.02.15-.11-.04-.33-.29-.45-.37-.28-.19-.57-.38-.86-.55-.11-.06-.6-.26-.63-.28-.09-.09,0-.1.09-.11,1.5-.22,3.09-.23,4.6-.12Z"/>
  <path class="cls-10" d="M20.14,26.73c1.5-.31,1.59,2.03.11,1.86-1.03-.12-1.03-1.67-.11-1.86Z"/>
  <path class="cls-6" d="M3.33,13.14c1.32-.21,1.51,1.66.38,1.85-1.32.21-1.51-1.66-.38-1.85Z"/>
  <path class="cls-10" d="M6.14,24.39c1.32-.21,1.51,1.66.38,1.85-1.32.21-1.51-1.66-.38-1.85Z"/>
  <path class="cls-6" d="M26.29,19.23c1.32-.21,1.51,1.66.38,1.85-1.3.21-1.51-1.66-.38-1.85Z"/>
  <path class="cls-10" d="M24.89,12.67c1.36-.22,1.52,1.77.27,1.86s-1.34-1.68-.27-1.86Z"/>
  <path class="cls-9" d="M24.38,10.31c.21.03.49-.1.62,0,.17.13.83,1.41.73,1.53-.25-.06-.46-.13-.73-.12-.13,0-.69.13-.79.18l-.29-1.05c.45.04.51-.1.47-.53Z"/>
  <path class="cls-5" d="M24.38,10.31c.04.43-.02.57-.47.53s-.94-.32-1.41-.29c.02-.1.1-.58.15-.59.51.04.99.18,1.49.27.09.02.2.08.23.09Z"/>
  <path class="cls-9" d="M5.16,10.31s.14-.08.23-.09c.5-.08.99-.2,1.5-.26.08.01.07.5.09.59-.45-.03-1.2.37-1.61.29-.27-.05-.21-.32-.21-.53Z"/>
  <path class="cls-2" d="M20.86,12.13c.01,1.31.03,2.14.58,3.38.13.3.71,1.15.72,1.34.01.25-.5.94-.64,1.24-.08.18-.35.78-.36.94-.02.25.14.27.25.45.17.27.35.57.39.9.14,1.2-.85,2.26-2.07,2.13-.27-.03-.64-.26-.78-.27-.21-.02-1.09.84-1.28,1.04-.16.16-.39.58-.6.63-.32.07-.88-.15-1.23-.21-.78-.12-1.58-.11-2.36.04,1.84,1.34.32,4.21-1.82,3.31-1.66-.7-1.41-3.2.35-3.55-.42-.61-1.12-1.17-1.76-1.55-.31-.18-1.25-.51-1.4-.65-.21-.2-.18-.64-.18-.91-2.43,1.22-4.09-2.37-1.56-3.41.08-.03.26-.04.27-.05.02-.02.01-.19.05-.27.59-1.23,1.03-1.67,1.24-3.16.04-.3-.07-.76.16-1.02.11-.12,1.06-.47,1.32-.62.1-.06.65-.39.68-.44.08-.13-.09-.32-.14-.45-.76-2.45,2.5-3.55,3.45-1.4.05.11.14.56.2.57.48,0,.97,0,1.45-.07.37-.05,1.15-.37,1.44-.14.14.12.49.69.63.72.08.02.48-.24.64-.28.55-.15,1.28-.01,1.72.35.35.28.64.96.64,1.41ZM12.23,9.39c-1.13.18-.94,2.06.38,1.85,1.13-.18.94-2.06-.38-1.85ZM19.98,13.83c-1.32.71-3-.25-2.87-1.79.02-.22.17-.48.11-.69-.03-.09-.45-.5-.54-.51-.82.22-1.67.26-2.51.23-.39.72-1.04,1.17-1.89,1.12-.19-.01-.62-.19-.69-.17-.08.02-.86.6-1.06.71-.29.16-.6.29-.91.41-.04,1.03-.33,2.03-.76,2.96-.08.17-.43.69-.42.81.01.17.49.38.65.53.36.37.57.95.53,1.47-.02.23-.12.43-.12.64,0,.33.17.73.13,1.07,1.26.46,2.31,1.3,3.2,2.29.82-.16,1.66-.28,2.51-.23.24.02,1.33.25,1.43.21.08-.04.45-.52.59-.65.13-.12.87-.66.88-.71.03-.13-.15-.51-.17-.7-.14-1.3.96-2.22,2.21-2.08.09-.37.25-.74.41-1.09.1-.21.45-.68.41-.85-.04-.14-.31-.49-.39-.67-.34-.73-.59-1.51-.71-2.31ZM18.79,11.26c-1.13.18-.94,2.06.38,1.85,1.13-.18.94-2.06-.38-1.85ZM7.54,17.82c-1.13.18-.94,2.06.38,1.85,1.13-.18.94-2.06-.38-1.85ZM19.73,19.7c-1.13.18-.94,2.06.38,1.85,1.13-.18.94-2.06-.38-1.85ZM12.23,24.39c-1.13.18-.94,2.06.38,1.85,1.13-.18.94-2.06-.38-1.85Z"/>
  <path class="cls-6" d="M12.23,9.39c1.32-.21,1.51,1.66.38,1.85-1.32.21-1.51-1.66-.38-1.85Z"/>
  <path class="cls-10" d="M7.54,17.82c1.32-.21,1.51,1.66.38,1.85-1.32.21-1.51-1.66-.38-1.85Z"/>
  <path class="cls-10" d="M19.73,19.7c1.32-.21,1.51,1.66.38,1.85-1.32.21-1.51-1.66-.38-1.85Z"/>
  <path class="cls-6" d="M12.23,24.39c1.32-.21,1.51,1.66.38,1.85-1.32.21-1.51-1.66-.38-1.85Z"/>
  <path class="cls-10" d="M18.79,11.26c1.32-.21,1.51,1.66.38,1.85-1.32.21-1.51-1.66-.38-1.85Z"/>
</svg>